<svg width="563" height="563" viewBox="0 0 563 563" fill="none" xmlns="http://www.w3.org/2000/svg">
<path fill-rule="evenodd" clip-rule="evenodd" d="M563 563H0V0H563V563Z" fill="#313132"/>
<path fill-rule="evenodd" clip-rule="evenodd" d="M230.122 239.905C210.493 243.42 195.845 260.776 195.845 281.28C195.845 302.224 210.493 320.02 230.122 323.095L219.429 343.161L239.863 332.469C239.863 332.469 246.088 367.18 281.317 367.18C302.19 367.18 319.548 352.461 323.137 332.908L343.571 343.161L332.878 323.095C352.507 319.507 367.155 302.151 367.155 281.28C367.155 260.776 352.946 243.42 332.439 239.905L343.571 219.4L323.137 230.092C318.23 210.027 302.63 195.82 281.317 195.82C246.601 195.82 239.863 230.092 239.863 230.092L219.429 219.4L230.122 239.905V239.905ZM312.444 312.404C312.444 332.908 309.734 354.731 281.317 354.731C259.491 354.731 244.77 332.908 250.556 312.404C230.122 318.189 208.296 303.543 208.296 281.28C208.296 259.018 230.561 244.811 250.556 250.597C244.77 230.092 259.491 208.269 281.317 208.269C303.509 208.269 318.23 230.092 312.444 250.597C332.439 244.811 354.704 259.018 354.704 281.28C354.704 303.543 332.878 318.189 312.444 312.404Z" fill="white"/>
<path fill-rule="evenodd" clip-rule="evenodd" d="M258.612 258.579L281.317 270.588L304.461 258.579L291.937 281.28L304.461 304.421L281.317 291.972L258.612 304.421L270.624 281.28L258.612 258.579Z" fill="white"/>
<path fill-rule="evenodd" clip-rule="evenodd" d="M432.192 236.317C429.483 233.241 424.575 233.241 421.939 236.317L386.783 271.468L376.53 281.281L374.332 283.917C373.893 288.824 372.941 293.291 371.183 297.318L376.09 302.225L386.783 291.533L421.939 326.684C424.575 329.32 429.483 329.32 432.192 326.684C434.829 323.975 434.829 319.581 432.192 316.432L397.037 281.281L432.192 246.13C434.829 243.42 434.829 239.027 432.192 236.317V236.317Z" fill="white"/>
<path fill-rule="evenodd" clip-rule="evenodd" d="M226.093 236.316L220.747 226.503L218.55 228.774L207.856 239.465L210.493 242.541C215.4 239.465 220.747 237.195 226.093 236.316Z" fill="white"/>
<path fill-rule="evenodd" clip-rule="evenodd" d="M323.576 196.698L378.727 141.555C381.436 138.845 381.436 134.378 378.727 131.742C375.65 128.593 371.183 128.593 368.546 131.742L313.323 186.446L323.576 196.698V196.698Z" fill="white"/>
<path fill-rule="evenodd" clip-rule="evenodd" d="M213.203 223.428L217.158 219.401L214.521 214.494L219.428 217.204L223.383 213.176L141.94 131.743C139.303 129.034 134.836 129.034 131.759 131.743C129.05 134.819 129.05 139.286 131.759 141.995L213.203 223.428V223.428Z" fill="white"/>
<path fill-rule="evenodd" clip-rule="evenodd" d="M266.156 381.826L255.023 370.695L194.453 431.257C191.377 433.894 186.909 433.894 184.273 431.257C181.563 428.548 181.563 424.154 184.273 421.005L244.769 360.516L228.73 344.479L141.94 430.818C139.303 433.894 134.835 433.894 131.759 430.818C129.049 428.108 129.049 423.715 131.759 421.005L218.549 334.226L202.51 317.749L141.5 378.751C138.864 381.387 134.396 381.387 131.759 378.751C128.61 376.041 128.61 371.135 131.759 368.498L192.256 308.01L176.216 291.533L141.061 326.684C137.985 329.32 133.517 329.32 130.807 326.684C127.731 323.974 127.731 319.58 130.807 316.431L192.256 254.99L131.759 194.502C128.61 191.792 128.61 186.886 131.759 184.249C134.396 181.613 138.864 181.613 141.5 184.249L202.51 244.811L204.267 247.008C195.405 254.551 189.619 266.121 188.667 279.01L186.03 281.28L188.667 283.917C190.059 305.3 205.586 322.656 226.093 326.684L214.521 348.506L236.347 336.936C239.862 355.61 255.023 370.695 274.578 373.405L266.156 381.826V381.826Z" fill="white"/>
<path fill-rule="evenodd" clip-rule="evenodd" d="M244.77 202.483L184.273 141.555C181.563 138.845 181.563 134.378 184.273 131.742C186.91 128.593 191.377 128.593 194.454 131.742L250.116 187.398L258.173 194.94C247.04 201.604 238.544 213.175 236.347 226.064L226.533 220.718L228.73 218.521H229.17L244.77 202.483V202.483Z" fill="white"/>
<path fill-rule="evenodd" clip-rule="evenodd" d="M160.689 276.374L170.87 266.122L141.061 236.317C137.985 233.241 133.517 233.241 130.807 236.317C127.731 239.027 127.731 243.42 130.807 246.13L160.689 275.935V276.374V276.374Z" fill="white"/>
<path fill-rule="evenodd" clip-rule="evenodd" d="M266.156 170.921L275.97 160.669L246.601 130.864C243.451 128.154 238.984 128.154 236.347 130.864C233.198 133.5 233.198 137.967 236.347 141.116L266.156 170.921Z" fill="white"/>
<path fill-rule="evenodd" clip-rule="evenodd" d="M421.06 378.751L360.49 317.749L344.523 334.226L430.874 421.005C433.95 423.715 433.95 428.109 430.874 430.818C428.164 433.894 423.696 433.894 420.62 430.818L334.27 344.479L323.577 355.171L320.427 352.022C323.577 347.555 325.334 342.209 326.653 336.936L348.478 348.507L336.906 326.684C349.797 323.974 360.929 315.992 367.667 304.861L370.743 308.01L373.893 310.646L431.313 368.499C434.39 371.135 434.39 376.041 431.313 378.751C428.604 381.387 424.136 381.387 421.06 378.751V378.751Z" fill="white"/>
<path fill-rule="evenodd" clip-rule="evenodd" d="M316.033 358.686C307.976 367.62 296.844 373.405 283.953 374.284L281.317 376.481L271.502 386.734L236.347 421.884C233.198 424.594 233.198 429.5 236.347 432.137C238.984 434.846 243.451 434.846 246.527 432.137L281.317 396.986L316.472 432.137C319.548 434.846 324.016 434.846 326.652 432.137C329.362 429.5 329.362 424.594 326.652 421.884L291.497 386.734L307.976 370.696L368.546 431.258C371.183 433.894 375.65 433.894 378.726 431.258C381.436 428.548 381.436 424.155 378.726 421.006L321.819 364.032L316.033 358.686V358.686Z" fill="white"/>
<path fill-rule="evenodd" clip-rule="evenodd" d="M431.313 184.249C434.389 186.886 434.389 191.792 431.313 194.502L376.09 249.645L366.275 239.465L421.059 184.249C424.135 181.613 428.603 181.613 431.313 184.249V184.249Z" fill="white"/>
<path fill-rule="evenodd" clip-rule="evenodd" d="M260.809 186.446L316.472 130.864C319.548 128.154 324.016 128.154 326.652 130.864C329.362 133.5 329.362 137.967 326.652 141.116L291.497 175.828L334.269 218.521L420.62 131.742C423.696 129.033 428.164 129.033 430.8 131.742C433.95 134.818 433.95 139.285 430.8 141.995L344.45 228.774L381.876 266.121L373.892 274.177C370.743 254.99 355.582 239.905 336.906 236.316L348.478 214.494L326.652 226.064C322.697 205.633 305.339 190.034 283.953 188.716L281.243 186.007L278.607 188.716C274.139 189.156 269.671 190.034 265.716 191.352L260.809 186.446V186.446Z" fill="white"/>
<path fill-rule="evenodd" clip-rule="evenodd" d="M526.087 36.908H36.9129V526.018H526.087V36.908V36.908ZM31.5663 25.7769H536.78V536.71H25.7803V25.7769H31.5663V25.7769Z" fill="white"/>
<path fill-rule="evenodd" clip-rule="evenodd" d="M325.774 239.026H327.092H328.044H328.923C327.604 239.026 326.213 239.026 324.895 239.026H324.016V238.074V239.026H324.895H325.774V239.026Z" fill="white"/>
<path fill-rule="evenodd" clip-rule="evenodd" d="M323.576 233.68V234.998L324.016 235.877V236.755V238.074C324.016 236.755 324.016 235.437 323.576 233.68V233.68Z" fill="white"/>
<path fill-rule="evenodd" clip-rule="evenodd" d="M237.225 323.974H235.907L235.028 323.535H233.637C235.028 323.974 236.786 323.974 238.104 323.974H238.983V324.853V324.413V323.974H238.104H237.225V323.974Z" fill="white"/>
<path fill-rule="evenodd" clip-rule="evenodd" d="M239.423 328.88L238.984 328.001V327.122V326.683V325.804V324.852C238.984 326.243 238.984 327.562 239.423 328.88Z" fill="white"/>
<path fill-rule="evenodd" clip-rule="evenodd" d="M324.016 325.804V326.683V327.122L323.576 328.001V328.88C324.016 327.562 324.016 326.243 324.016 324.852V325.804Z" fill="white"/>
<path fill-rule="evenodd" clip-rule="evenodd" d="M328.923 323.535H328.044L327.092 323.974H325.774H324.895H324.016V324.413V324.853V323.974H324.895C326.213 323.974 327.604 323.974 328.923 323.535V323.535Z" fill="white"/>
</svg>
